<svg width="48" height="48" viewBox="0 0 48 48" fill="none" xmlns="http://www.w3.org/2000/svg">
<path fill-rule="evenodd" clip-rule="evenodd" d="M24 45.0909C34.865 45.0909 43.6729 36.625 43.6729 26.1818C43.6729 15.7386 34.865 7.27273 24 7.27273C13.1349 7.27273 4.32709 15.7386 4.32709 26.1818C4.32709 36.625 13.1349 45.0909 24 45.0909ZM24 48C36.5366 48 46.6995 38.2317 46.6995 26.1818C46.6995 14.132 36.5366 4.36364 24 4.36364C11.4634 4.36364 1.30049 14.132 1.30049 26.1818C1.30049 38.2317 11.4634 48 24 48Z" fill="#872EE1"/>
<path d="M21.3789 1.45455C22.5438 -0.484848 25.4562 -0.484849 26.6211 1.45454L47.59 36.3636C48.7549 38.303 47.2988 40.7273 44.9689 40.7273H3.03112C0.701241 40.7273 -0.754936 38.303 0.410002 36.3636L21.3789 1.45455Z" fill="white"/>
<path fill-rule="evenodd" clip-rule="evenodd" d="M44.9689 37.8182L24 2.90909L3.03112 37.8182H44.9689ZM26.6211 1.45454C25.4562 -0.484849 22.5438 -0.484848 21.3789 1.45455L0.410002 36.3636C-0.754936 38.303 0.701241 40.7273 3.03112 40.7273H44.9689C47.2988 40.7273 48.7549 38.303 47.59 36.3636L26.6211 1.45454Z" fill="#872EE1"/>
<path d="M23.3176 35.4381V15.6033H24.6396V35.4381H23.3176ZM26.8241 22.1503C26.7596 21.5253 26.4829 21.0398 25.9938 20.6937C25.5048 20.3477 24.8411 20.1746 24.0028 20.1746C23.4332 20.1746 22.9522 20.2521 22.5599 20.4071C22.1676 20.5569 21.8667 20.766 21.6571 21.0346C21.4529 21.3032 21.3508 21.608 21.3508 21.9489C21.34 22.233 21.4018 22.4809 21.5362 22.6927C21.6759 22.9045 21.8667 23.0878 22.1085 23.2428C22.3503 23.3926 22.6298 23.5243 22.9468 23.6379C23.2639 23.7464 23.6024 23.8394 23.9625 23.9169L25.4457 24.2578C26.1658 24.4127 26.8268 24.6194 27.4287 24.8776C28.0306 25.1359 28.5518 25.4535 28.9925 25.8306C29.4332 26.2077 29.7744 26.6519 30.0162 27.1633C30.2634 27.6746 30.3897 28.2609 30.3951 28.922C30.3897 29.8931 30.1318 30.7351 29.6212 31.4479C29.1161 32.1555 28.3852 32.7056 27.4287 33.0982C26.4775 33.4856 25.3302 33.6793 23.9867 33.6793C22.6539 33.6793 21.4932 33.483 20.5044 33.0904C19.5209 32.6979 18.7525 32.1168 18.199 31.3471C17.6508 30.5723 17.3633 29.6142 17.3364 28.4727H20.714C20.7516 29.0047 20.9101 29.4489 21.1895 29.8053C21.4744 30.1565 21.8532 30.4226 22.3261 30.6033C22.8044 30.779 23.3445 30.8668 23.9464 30.8668C24.5375 30.8668 25.0507 30.7841 25.486 30.6188C25.9267 30.4535 26.2679 30.2237 26.5097 29.9293C26.7516 29.6348 26.8725 29.2965 26.8725 28.9143C26.8725 28.5579 26.7623 28.2583 26.542 28.0155C26.327 27.7728 26.01 27.5661 25.5908 27.3957C25.177 27.2252 24.6692 27.0703 24.0673 26.9308L22.2697 26.4969C20.8779 26.1715 19.7789 25.6627 18.9728 24.9706C18.1667 24.2784 17.7663 23.3461 17.7717 22.1736C17.7663 21.2128 18.0324 20.3735 18.5698 19.6555C19.1125 18.9375 19.8568 18.3771 20.8026 17.9742C21.7484 17.5713 22.8232 17.3699 24.027 17.3699C25.2522 17.3699 26.3216 17.5713 27.2352 17.9742C28.1542 18.3771 28.8689 18.9375 29.3794 19.6555C29.8899 20.3735 30.1533 21.2051 30.1694 22.1503H26.8241Z" fill="#872EE1"/>
</svg>
