<svg width="24" height="24" viewBox="0 0 24 24" fill="none" xmlns="http://www.w3.org/2000/svg">
<g clip-path="url(#clip0_409_3)">
<path fill-rule="evenodd" clip-rule="evenodd" d="M7.97736 12.4386C8.02792 12.2794 8.04897 12.1153 8.04517 11.9532C8.03931 11.8359 8.02412 11.7187 7.99082 11.6014C7.89056 11.2371 7.65312 10.9117 7.29731 10.7065L2.23671 7.78442C1.52232 7.37321 0.611563 7.61773 0.201566 8.33108C-0.212399 9.0434 0.0317706 9.95312 0.746159 10.3654L3.57403 12.0009L0.746159 13.6319C0.0317706 14.0448 -0.211537 14.9547 0.201566 15.67C0.611563 16.3814 1.52232 16.6247 2.23671 16.2135L7.29731 13.2895C7.6388 13.093 7.87054 12.7848 7.97736 12.4386ZM9.35074 15.177C9.05998 15.1521 8.75766 15.2132 8.48571 15.3716L3.42132 18.2918C2.70883 18.7039 2.46553 19.6184 2.87673 20.3319C3.28983 21.0436 4.19972 21.2886 4.91118 20.8746L7.74855 19.2379V22.5084C7.74855 23.3324 8.41513 24 9.24013 24C10.0612 24 10.7298 23.3324 10.7298 22.5084V16.6618C10.7298 15.8769 10.1214 15.2322 9.35074 15.177ZM14.5371 8.82287C14.827 8.84685 15.1285 8.78491 15.4004 8.6284L20.4638 5.70544C21.1773 5.2932 21.4194 4.38244 21.0092 3.66702C20.5982 2.95487 19.6875 2.71053 18.975 3.12243L16.1395 4.76104V1.48952C16.1395 0.667799 15.4729 -2.53875e-07 14.6479 -2.53875e-07C13.8229 -2.53875e-07 13.1581 0.667799 13.1581 1.48952V7.33611C13.1581 8.12021 13.7648 8.76592 14.5371 8.82287ZM3.42132 5.70544L8.48571 8.6284C8.75766 8.78491 9.05998 8.84685 9.35074 8.82287C10.1214 8.76592 10.7298 8.12021 10.7298 7.33611V1.48952C10.7298 0.667799 10.0612 -2.53875e-07 9.24013 -2.53875e-07C8.41513 -2.53875e-07 7.74855 0.667799 7.74855 1.48952V4.76104L4.91118 3.12243C4.19972 2.71053 3.28983 2.95487 2.87673 3.66702C2.46553 4.38244 2.70883 5.2932 3.42132 5.70544ZM12.9387 11.9886C12.9387 11.9037 12.8873 11.7853 12.8273 11.7225L12.2178 11.1158C12.1577 11.0559 12.0394 11.0062 11.9543 11.0062H11.9307C11.8458 11.0062 11.7275 11.0559 11.6684 11.1158L11.0589 11.7225C10.9978 11.7853 10.951 11.9037 10.951 11.9886V12.0124C10.951 12.0963 10.9978 12.2136 11.0589 12.2747L11.6684 12.8831C11.7284 12.9432 11.8458 12.9927 11.9307 12.9927H11.9543C12.0394 12.9927 12.1577 12.9432 12.2178 12.8831L12.8273 12.2747C12.8873 12.2136 12.9387 12.0963 12.9387 12.0124V11.9886ZM14.6212 12.5722L12.5163 14.6745C12.4561 14.7362 12.3398 14.7868 12.2521 14.7868H12.0994H11.7885H11.6332C11.5481 14.7868 11.4299 14.7362 11.3688 14.6745L9.26498 12.5722C9.20476 12.513 9.1561 12.3939 9.1561 12.3099V12.1544V11.8435V11.6901C9.1561 11.6042 9.20476 11.4849 9.26498 11.4249L11.3688 9.32277C11.4299 9.26082 11.5481 9.21216 11.6332 9.21216H11.7885H12.0994H12.2521C12.3379 9.21216 12.4561 9.26082 12.5163 9.32277L14.6212 11.4249C14.6812 11.4849 14.7299 11.6042 14.7299 11.6901V11.8435V12.1544V12.3099C14.7299 12.3939 14.6812 12.513 14.6212 12.5722ZM20.4638 18.2918L15.4004 15.3716C15.1285 15.2132 14.827 15.1521 14.5371 15.177C13.7648 15.2322 13.1581 15.8769 13.1581 16.6618V22.5084C13.1581 23.3324 13.8229 24 14.6479 24C15.4729 24 16.1395 23.3324 16.1395 22.5084V19.2379L18.975 20.8746C19.6873 21.2886 20.5982 21.0436 21.0092 20.3319C21.4194 19.6184 21.1773 18.7039 20.4638 18.2918ZM23.141 10.3654L20.313 12.0009L23.141 13.6319C23.8552 14.0448 24.0994 14.9547 23.6865 15.67C23.2744 16.3814 22.3628 16.6247 21.6512 16.2135L16.5868 13.2895C16.2491 13.093 16.0146 12.7848 15.9105 12.4386C15.861 12.2794 15.838 12.1153 15.8437 11.9532C15.8467 11.8359 15.8638 11.7187 15.8962 11.6014C15.9975 11.2371 16.2349 10.9119 16.5868 10.7065L21.6512 7.78442C22.3628 7.37321 23.2744 7.61773 23.6865 8.33108C24.0994 9.0434 23.8552 9.95312 23.141 10.3654Z" fill="#2AB6E9"/>
</g>
<defs>
<clipPath id="clip0_409_3">
<rect width="24" height="24" fill="white"/>
</clipPath>
</defs>
</svg>
