<svg width="24" height="24" viewBox="0 0 24 24" fill="none" xmlns="http://www.w3.org/2000/svg">
<g clip-path="url(#clip0_409_3)">
<path d="M6.76354 11.0124C6.76354 11.3077 6.79545 11.5472 6.85133 11.7228C6.91519 11.8984 6.99503 12.09 7.10678 12.2975C7.14668 12.3613 7.16265 12.4252 7.16265 12.4811C7.16265 12.5609 7.11473 12.6407 7.01096 12.7206L6.50809 13.0558C6.43628 13.1037 6.36443 13.1277 6.30056 13.1277C6.22073 13.1277 6.14093 13.0877 6.06109 13.0159C5.94934 12.8962 5.85356 12.7684 5.77373 12.6407C5.69393 12.505 5.61409 12.3534 5.5263 12.1698C4.90369 12.9042 4.12144 13.2713 3.17954 13.2713C2.50904 13.2713 1.97424 13.0798 1.58311 12.6966C1.19199 12.3135 0.992432 11.8026 0.992432 11.164C0.992432 10.4856 1.2319 9.9348 1.71881 9.51971C2.20572 9.10466 2.85227 8.8971 3.67443 8.8971C3.94583 8.8971 4.2252 8.92106 4.52055 8.96096C4.81586 9.00086 5.1192 9.06472 5.43848 9.13657V8.55386C5.43848 7.94722 5.31079 7.52419 5.06333 7.27672C4.80791 7.0293 4.37685 6.90956 3.76223 6.90956C3.48286 6.90956 3.19551 6.94147 2.90017 7.01332C2.60483 7.08517 2.31747 7.17296 2.03809 7.28471C1.91038 7.34059 1.81459 7.37254 1.75872 7.38847C1.70284 7.40445 1.66294 7.41244 1.631 7.41244C1.51925 7.41244 1.46338 7.3326 1.46338 7.16497V6.77385C1.46338 6.64616 1.47934 6.55035 1.51925 6.49447C1.55917 6.4386 1.631 6.38272 1.74275 6.32685C2.02213 6.18319 2.35738 6.06345 2.7485 5.96767C3.13963 5.86391 3.5547 5.81599 3.99371 5.81599C4.94359 5.81599 5.63805 6.03154 6.08505 6.46256C6.52406 6.89359 6.74756 7.54811 6.74756 8.42617V11.0124H6.76354ZM3.52277 12.2257C3.78619 12.2257 4.05758 12.1778 4.34494 12.082C4.6323 11.9862 4.88771 11.8106 5.10323 11.5711C5.23095 11.4195 5.32673 11.2518 5.37461 11.0603C5.42254 10.8687 5.45445 10.6372 5.45445 10.3658V10.0306C5.22296 9.9747 4.97554 9.92681 4.72009 9.89486C4.46468 9.86295 4.21721 9.84697 3.96979 9.84697C3.43497 9.84697 3.04385 9.95074 2.78044 10.1663C2.51702 10.3818 2.38931 10.6851 2.38931 11.0842C2.38931 11.4594 2.4851 11.7388 2.68465 11.9303C2.87622 12.1299 3.1556 12.2257 3.52277 12.2257ZM9.93244 13.0877C9.78877 13.0877 9.69296 13.0638 9.6291 13.0079C9.56528 12.96 9.5094 12.8483 9.46148 12.6966L7.58569 6.52642C7.5378 6.36679 7.51384 6.26299 7.51384 6.20711C7.51384 6.07942 7.5777 6.00757 7.70543 6.00757H8.48768C8.63933 6.00757 8.74309 6.03154 8.79896 6.08741C8.86283 6.1353 8.91071 6.24705 8.9586 6.3987L10.2996 11.6829L11.5448 6.3987C11.5847 6.23906 11.6326 6.1353 11.6965 6.08741C11.7603 6.03949 11.8721 6.00757 12.0158 6.00757H12.6543C12.806 6.00757 12.9098 6.03154 12.9736 6.08741C13.0375 6.1353 13.0933 6.24705 13.1253 6.3987L14.3865 11.7467L15.7674 6.3987C15.8153 6.23906 15.8712 6.1353 15.927 6.08741C15.9909 6.03949 16.0947 6.00757 16.2383 6.00757H16.9807C17.1084 6.00757 17.1802 6.07144 17.1802 6.20711C17.1802 6.24705 17.1723 6.28695 17.1643 6.33484C17.1563 6.38272 17.1403 6.44659 17.1084 6.53441L15.1847 12.7046C15.1368 12.8642 15.0809 12.968 15.0171 13.0159C14.9532 13.0638 14.8494 13.0957 14.7137 13.0957H14.0273C13.8756 13.0957 13.7718 13.0718 13.708 13.0159C13.6441 12.96 13.5883 12.8563 13.5563 12.6966L12.3191 7.54811L11.0898 12.6886C11.0499 12.8483 11.0021 12.952 10.9382 13.0079C10.8743 13.0638 10.7626 13.0877 10.6189 13.0877H9.93244ZM20.1895 13.3033C19.7744 13.3033 19.3593 13.2553 18.9603 13.1596C18.5611 13.0638 18.2498 12.96 18.0423 12.8403C17.9146 12.7684 17.8268 12.6886 17.7948 12.6168C17.7629 12.5449 17.7469 12.4651 17.7469 12.3933V11.9862C17.7469 11.8186 17.8108 11.7387 17.9305 11.7387C17.9784 11.7387 18.0263 11.7467 18.0742 11.7627C18.1221 11.7787 18.1939 11.8106 18.2738 11.8425C18.5452 11.9623 18.8405 12.058 19.1518 12.1219C19.4711 12.1858 19.7824 12.2177 20.1017 12.2177C20.6046 12.2177 20.9957 12.1299 21.2671 11.9543C21.5385 11.7787 21.6822 11.5232 21.6822 11.196C21.6822 10.9725 21.6103 10.7889 21.4666 10.6372C21.3229 10.4856 21.0516 10.3498 20.6604 10.2222L19.503 9.86295C18.9203 9.67935 18.4893 9.40796 18.2259 9.04879C17.9625 8.69756 17.8268 8.30644 17.8268 7.89135C17.8268 7.5561 17.8986 7.26079 18.0423 7.00534C18.186 6.74992 18.3775 6.52642 18.617 6.35081C18.8565 6.16721 19.1279 6.03154 19.4472 5.93572C19.7664 5.83995 20.1017 5.80005 20.4529 5.80005C20.6285 5.80005 20.8121 5.80804 20.9877 5.83196C21.1713 5.85592 21.3389 5.88784 21.5065 5.91979C21.6662 5.95969 21.8178 5.99959 21.9615 6.04747C22.1052 6.09536 22.2169 6.14329 22.2968 6.19117C22.4085 6.25504 22.4883 6.31886 22.5363 6.39071C22.5841 6.45457 22.6081 6.54236 22.6081 6.65411V7.0293C22.6081 7.19692 22.5442 7.28471 22.4245 7.28471C22.3606 7.28471 22.2569 7.2528 22.1212 7.18894C21.6662 6.98141 21.1553 6.87761 20.5886 6.87761C20.1336 6.87761 19.7744 6.94946 19.527 7.10111C19.2795 7.2528 19.1518 7.48429 19.1518 7.81155C19.1518 8.03505 19.2316 8.2266 19.3913 8.37829C19.5509 8.52994 19.8463 8.68159 20.2693 8.8173L21.4028 9.17647C21.9775 9.36007 22.3926 9.61549 22.64 9.94279C22.8874 10.27 23.0072 10.6452 23.0072 11.0603C23.0072 11.4035 22.9353 11.7148 22.7997 11.9862C22.656 12.2576 22.4644 12.4971 22.2169 12.6886C21.9695 12.8882 21.6742 13.0318 21.3309 13.1356C20.9718 13.2474 20.5966 13.3033 20.1895 13.3033Z" fill="#252F3E"/>
<path fill-rule="evenodd" clip-rule="evenodd" d="M21.698 17.1826C19.0719 19.1223 15.2564 20.152 11.9758 20.152C7.37805 20.152 3.23532 18.4518 0.106323 15.6261C-0.141123 15.4026 0.0823772 15.0993 0.377715 15.2749C3.76215 17.2385 7.9368 18.4278 12.2551 18.4278C15.1686 18.4278 18.3695 17.8212 21.3149 16.5759C21.7539 16.3764 22.1291 16.8633 21.698 17.1826Z" fill="#FF9900"/>
<path fill-rule="evenodd" clip-rule="evenodd" d="M22.7917 15.9373C22.4564 15.5062 20.5726 15.7297 19.7186 15.8335C19.4631 15.8654 19.4232 15.6419 19.6547 15.4743C21.1553 14.4207 23.6218 14.724 23.9092 15.0752C24.1965 15.4344 23.8293 17.9009 22.4245 19.0822C22.209 19.2658 22.0014 19.17 22.0972 18.9306C22.4165 18.1403 23.1269 16.3603 22.7917 15.9373Z" fill="#FF9900"/>
</g>
<defs>
<clipPath id="clip0_409_3">
<rect width="24" height="24" fill="white"/>
</clipPath>
</defs>
</svg>
