<svg width="24" height="24" viewBox="0 0 24 24" fill="none" xmlns="http://www.w3.org/2000/svg">
<path d="M23.1669 10.6146C23.1244 10.2309 23.0817 9.76198 22.9112 9.25044C22.7833 8.73889 22.5702 8.18472 22.2717 7.58792C21.9733 6.99112 21.5897 6.39431 21.1208 5.7975C20.9503 5.58437 20.7371 5.32859 20.4814 5.11545C20.8224 3.75133 20.0551 2.60036 20.0551 2.60036C18.7762 2.51509 17.9236 2.98401 17.6252 3.23978C17.5826 3.23978 17.5399 3.19716 17.4547 3.15452C17.2416 3.06927 17.0284 2.98401 16.7727 2.89876C16.5169 2.8135 16.3037 2.77087 16.048 2.68561C15.7922 2.64298 15.5364 2.60036 15.3233 2.55772C15.2806 2.55772 15.238 2.55772 15.1954 2.55772C14.6412 0.767317 13.0213 0 13.0213 0C11.2309 1.15098 10.8899 2.72824 10.8899 2.72824C10.8899 2.72824 10.8899 2.77087 10.8899 2.8135C10.8046 2.85612 10.6767 2.85612 10.5915 2.89876C10.4636 2.94138 10.3357 2.98401 10.1652 3.02665C10.0373 3.06927 9.90941 3.1119 9.73889 3.19716C9.48312 3.32505 9.18472 3.45292 8.92895 3.58081C8.67317 3.7087 8.41741 3.87921 8.16163 4.04974C8.11901 4.04974 8.11901 4.0071 8.11901 4.0071C5.60391 3.06927 3.38721 4.22025 3.38721 4.22025C3.17407 6.86323 4.36767 8.56837 4.62345 8.86677C4.58081 9.03729 4.49556 9.20781 4.45293 9.37833C4.28242 9.97513 4.1119 10.6146 4.02665 11.254C4.02665 11.3393 3.98401 11.4245 3.98401 11.5098C1.68206 12.6607 1 15.0053 1 15.0053C2.91829 17.222 5.17762 17.3499 5.17762 17.3499C5.47602 17.8615 5.77443 18.3303 6.15808 18.7992C6.32859 18.9697 6.49911 19.1829 6.627 19.3534C5.94494 21.357 6.71225 23.0196 6.71225 23.0196C8.84369 23.1048 10.2504 22.0817 10.5488 21.8259C10.762 21.9112 10.9751 21.9538 11.1883 22.0391C11.8277 22.2096 12.5098 22.2949 13.1918 22.3374C13.3623 22.3374 13.5329 22.3374 13.7034 22.3374H13.7887H13.8312H13.9165H14.0017C15.0249 23.7868 16.7727 24 16.7727 24C18.0515 22.6784 18.0941 21.357 18.0941 21.0586V21.016V20.9733C18.3499 20.8028 18.6056 20.5897 18.8615 20.3766C19.373 19.9076 19.7992 19.3961 20.1829 18.8419C20.2256 18.7992 20.2682 18.7567 20.2682 18.6714C21.7176 18.7567 22.698 17.7762 22.698 17.7762C22.4423 16.2842 21.5896 15.5595 21.4191 15.4317H21.3766C21.3766 15.3463 21.3766 15.261 21.3766 15.1758C21.3766 15.0053 21.3766 14.8348 21.3766 14.707V14.4938V14.4511V14.4085V14.3659V14.2806V14.1528C21.3766 14.1101 21.3766 14.0675 21.3766 14.0249C21.3766 13.9823 21.3766 13.9396 21.3766 13.8969V13.7691V13.6412C21.3339 13.4707 21.3339 13.3002 21.2913 13.1722C21.1208 12.5329 20.9076 11.936 20.5666 11.3818C20.2256 10.8277 19.8419 10.3588 19.373 9.9325C18.9041 9.50621 18.3925 9.20781 17.8384 8.95204C17.2842 8.69626 16.73 8.56837 16.1332 8.48312C15.8348 8.44049 15.579 8.44049 15.2806 8.44049H15.1954H15.1528H15.1101H15.0675H14.9823C14.9396 8.44049 14.8969 8.44049 14.8544 8.44049C14.7264 8.44049 14.5559 8.48312 14.4281 8.48312C13.8739 8.56837 13.3197 8.78152 12.8508 9.07992C12.3818 9.37833 11.9556 9.71935 11.6146 10.103C11.2735 10.4867 11.0178 10.9556 10.8472 11.4245C10.6767 11.8935 10.5915 12.3623 10.5488 12.8312C10.5488 12.9592 10.5488 13.0444 10.5488 13.1722C10.5488 13.2149 10.5488 13.2149 10.5488 13.2576V13.3428C10.5488 13.3854 10.5488 13.4707 10.5488 13.5133C10.5915 13.7264 10.6341 13.9823 10.6767 14.1954C10.8046 14.6216 11.0178 15.0053 11.2309 15.3463C11.4867 15.6874 11.7851 15.9432 12.0835 16.1562C12.3818 16.3694 12.723 16.5399 13.064 16.6252C13.405 16.7104 13.7034 16.7531 14.0444 16.7531C14.087 16.7531 14.1297 16.7531 14.1722 16.7531H14.2149H14.2576C14.3002 16.7531 14.3428 16.7531 14.3428 16.7531C14.3428 16.7531 14.3428 16.7531 14.3854 16.7531H14.4281H14.4707C14.5133 16.7531 14.5559 16.7531 14.5986 16.7531C14.6412 16.7531 14.6838 16.7531 14.7264 16.7104C14.8117 16.7104 14.8544 16.6679 14.9396 16.6679C15.0675 16.6252 15.1954 16.5826 15.3233 16.4974C15.4511 16.4547 15.5364 16.3694 15.6643 16.2842C15.7069 16.2842 15.707 16.2416 15.7495 16.1989C15.8775 16.1137 15.8775 15.9432 15.7922 15.8579C15.707 15.7727 15.579 15.73 15.4938 15.8152C15.4511 15.8152 15.4511 15.8579 15.4085 15.8579C15.3233 15.9005 15.238 15.9432 15.1101 15.9857C15.0249 16.0284 14.8969 16.0284 14.8117 16.071C14.7691 16.071 14.6838 16.071 14.6412 16.071C14.5986 16.071 14.5986 16.071 14.5559 16.071C14.5133 16.071 14.5133 16.071 14.4707 16.071C14.4281 16.071 14.4281 16.071 14.3854 16.071C14.3428 16.071 14.3002 16.071 14.3002 16.071H14.2576H14.2149C14.1722 16.071 14.1723 16.071 14.1297 16.071C13.8739 16.0284 13.6607 15.9857 13.405 15.8579C13.1492 15.7727 12.936 15.6022 12.7229 15.4317C12.5098 15.261 12.3393 15.0053 12.2113 14.7922C12.0835 14.579 11.9556 14.2806 11.9129 13.9823C11.8703 13.8544 11.8703 13.6838 11.8703 13.5559C11.8703 13.5133 11.8703 13.4707 11.8703 13.4281V13.3854V13.3428C11.8703 13.2576 11.8703 13.1722 11.9129 13.087C12.0408 12.4475 12.3393 11.8508 12.8508 11.3393C12.9787 11.2113 13.1065 11.1261 13.2345 10.9982C13.3623 10.9129 13.5329 10.8277 13.6607 10.7424C13.8312 10.6572 14.0017 10.6146 14.1297 10.5719C14.3002 10.5293 14.4707 10.4867 14.6412 10.4867C14.7264 10.4867 14.8117 10.4867 14.8969 10.4867H14.9396H15.0249H15.0675H15.1528C15.3233 10.4867 15.5364 10.5293 15.7069 10.5719C16.0905 10.6572 16.4316 10.7851 16.7727 10.9982C17.4547 11.3818 18.0089 11.9787 18.3925 12.6607C18.563 13.0017 18.691 13.3854 18.7762 13.7691C18.7762 13.8544 18.8188 13.9823 18.8188 14.0675V14.1528V14.238C18.8188 14.2806 18.8188 14.2806 18.8188 14.3233C18.8188 14.3659 18.8188 14.3659 18.8188 14.4085V14.4938V14.579C18.8188 14.6216 18.8188 14.7069 18.8188 14.7495C18.8188 14.8775 18.8188 14.9627 18.7762 15.0905C18.7762 15.1758 18.7336 15.3037 18.7336 15.389C18.7336 15.4742 18.6909 15.6022 18.6483 15.6874C18.6056 15.9005 18.5204 16.1137 18.4351 16.2842C18.2646 16.6679 18.0515 17.0515 17.7957 17.4351C17.2842 18.1172 16.6022 18.714 15.7922 19.055C15.4085 19.2256 14.9823 19.3534 14.5559 19.4387C14.3428 19.4814 14.1297 19.4814 13.9165 19.5239H13.8739H13.8312H13.746H13.6607H13.6182C13.4902 19.5239 13.405 19.5239 13.277 19.5239C12.8082 19.4814 12.3393 19.3961 11.9129 19.2682C11.4867 19.1404 11.0178 18.9697 10.6341 18.7567C9.82415 18.3303 9.09946 17.7335 8.50266 17.0089C8.20426 16.6679 7.94848 16.2842 7.77797 15.8579C7.56482 15.4317 7.39432 15.0053 7.26643 14.579C7.13854 14.1528 7.05329 13.6838 7.05329 13.2576V13.1722V13.1297V13.0444V12.7887V12.746V12.6607V12.6182C7.05329 12.5755 7.05329 12.4902 7.05329 12.4475C7.05329 12.2345 7.09592 11.9787 7.09592 11.7655C7.13854 11.5524 7.18117 11.2966 7.2238 11.0835C7.26643 10.8703 7.30906 10.6146 7.39431 10.4014C7.52219 9.97513 7.69272 9.54884 7.86323 9.12255C8.24688 8.31261 8.7158 7.58792 9.3126 7.03374C9.44049 6.90586 9.61101 6.73534 9.78152 6.60746C9.95204 6.47957 10.1226 6.35168 10.2931 6.26643C10.4636 6.13854 10.6341 6.05328 10.8046 5.96803C10.8899 5.92539 10.9751 5.88277 11.0604 5.84014C11.103 5.84014 11.1456 5.7975 11.1883 5.7975C11.2309 5.7975 11.2735 5.75488 11.3162 5.75488C11.4867 5.66963 11.6998 5.62699 11.8703 5.54174C11.9129 5.54174 11.9556 5.4991 11.9983 5.4991C12.0408 5.4991 12.0835 5.45648 12.1261 5.45648C12.2113 5.41385 12.3393 5.41385 12.4245 5.37123C12.4671 5.37123 12.5098 5.32859 12.595 5.32859C12.6376 5.32859 12.6803 5.32859 12.7655 5.28596C12.8082 5.28596 12.8508 5.28596 12.936 5.24334H13.0213H13.1065C13.1492 5.24334 13.1918 5.24334 13.277 5.2007C13.3197 5.2007 13.405 5.2007 13.4477 5.15808C13.4902 5.15808 13.5755 5.15808 13.6182 5.15808C13.6607 5.15808 13.7034 5.15808 13.746 5.15808H13.8312H13.8739H13.9165C13.9592 5.15808 14.0444 5.15808 14.087 5.15808H14.1722H14.2149C14.2576 5.15808 14.3002 5.15808 14.3428 5.15808C14.5559 5.15808 14.7264 5.15808 14.9396 5.15808C15.3233 5.15808 15.7069 5.2007 16.0905 5.28596C16.8152 5.41385 17.4974 5.66963 18.1368 5.96803C18.7762 6.26643 19.3303 6.65008 19.7992 7.07637C19.8419 7.119 19.8419 7.119 19.8845 7.16163C19.9272 7.20426 19.9272 7.20426 19.9697 7.24688C20.0124 7.28952 20.0977 7.33215 20.1402 7.4174C20.1829 7.50266 20.2682 7.50266 20.3109 7.58792C20.3534 7.67317 20.4387 7.71581 20.4814 7.75843C20.6944 7.97157 20.8649 8.18472 21.0356 8.44049C21.3766 8.86678 21.675 9.33569 21.8881 9.76198C21.8881 9.80461 21.9307 9.80461 21.9307 9.84724C21.9307 9.88986 21.9733 9.88986 21.9733 9.9325C22.016 9.97513 22.016 10.0178 22.0586 10.103C22.1012 10.1456 22.1012 10.1883 22.1438 10.2735C22.1865 10.3162 22.1865 10.3588 22.2291 10.444C22.3144 10.6572 22.3997 10.8277 22.4422 10.9982C22.5275 11.2966 22.6128 11.5524 22.6554 11.7655C22.698 11.8508 22.7833 11.936 22.8685 11.8935C22.9538 11.8935 23.0391 11.8082 23.0391 11.7229C23.2096 11.2113 23.2096 10.9129 23.1669 10.6146Z" fill="url(#paint0_linear_915_140)"/>
<defs>
<linearGradient id="paint0_linear_915_140" x1="12.1646" y1="30.4857" x2="12.1646" y2="2.72194" gradientUnits="userSpaceOnUse">
<stop stop-color="#FFF100"/>
<stop offset="1" stop-color="#F05A28"/>
</linearGradient>
</defs>
</svg>
