<svg width="24" height="24" viewBox="0 0 24 24" fill="none" xmlns="http://www.w3.org/2000/svg">
<path d="M15.2722 7.58415L16.0408 7.59759L18.129 5.50935L18.2298 4.62447C16.5703 3.14832 14.3866 2.25 11.9967 2.25C7.6697 2.25 4.01729 5.19423 2.93555 9.18258C3.16399 9.02335 3.65111 9.14227 3.65111 9.14227L7.82491 8.4556C7.82491 8.4556 8.03991 8.09949 8.14741 8.12167C9.04333 7.14156 10.2794 6.54022 11.6036 6.44034C12.9277 6.34045 14.24 6.74954 15.2728 7.58415H15.2722Z" fill="#EA4335"/>
<path d="M21.0706 9.18996C20.5908 7.42469 19.6063 5.83777 18.2379 4.62378L15.2802 7.58145C15.8872 8.06929 16.377 8.68706 16.7137 9.38928C17.0503 10.0915 17.2251 10.8603 17.2253 11.639V12.1611C18.6645 12.1611 19.8323 13.3322 19.8323 14.768C19.8323 16.2038 18.6612 17.3749 17.2253 17.3749H12.0101L11.488 17.899V21.0287L12.0101 21.5481H17.2253C19.0214 21.5433 20.7425 20.8273 22.0121 19.5569C23.2817 18.2864 23.9965 16.5648 24 14.7687C23.9973 12.4601 22.8336 10.4148 21.0638 9.18996H21.0706Z" fill="#4285F4"/>
<path d="M6.78207 21.5527H11.996V17.3789H6.78207C6.41182 17.3791 6.04586 17.2996 5.70906 17.1458L4.95654 17.3762L2.8683 19.4645L2.68555 20.1699C3.86045 21.072 5.30147 21.5588 6.78275 21.554L6.78207 21.5527Z" fill="#34A853"/>
<path d="M6.78208 7.98926C4.98423 7.9921 3.26084 8.70755 1.98957 9.97882C0.718296 11.2501 0.00284301 12.9735 3.30027e-10 14.7713C-1.03338e-05 15.8182 0.242673 16.8509 0.70899 17.7882C1.17531 18.7255 1.85256 19.5419 2.68757 20.1734L5.71108 17.1498C5.2531 16.9438 4.86438 16.6098 4.59166 16.1881C4.31894 15.7664 4.17384 15.2749 4.1738 14.7727C4.1738 13.3335 5.3449 12.1657 6.78074 12.1657C7.28276 12.1666 7.77391 12.3121 8.19547 12.5847C8.61702 12.8573 8.95115 13.2456 9.15789 13.703L12.1814 10.6795C10.9411 9.04682 8.9832 7.99195 6.77939 7.99195L6.78208 7.98926Z" fill="#FBBC05"/>
</svg>
