<svg width="24" height="24" viewBox="0 0 24 24" fill="none" xmlns="http://www.w3.org/2000/svg">
<path d="M18.1117 12.6139C17.8047 12.6279 17.4977 12.6419 17.1907 12.6698L15.3488 12.7256C14.8465 12.7814 14.2884 12.7814 13.7861 12.7814C14.1685 12.9089 14.5186 13.0687 14.8856 13.2363C15.0007 13.2888 15.1173 13.3421 15.2372 13.3953L16.9116 14.1767C17.4698 14.4 18.0279 14.6791 18.586 14.9581L18.4186 15.4046C17.8605 15.2372 17.2465 15.014 16.6884 14.7907L14.9581 14.1209C14.707 14.0372 14.4697 13.9395 14.2325 13.8418C13.9953 13.7442 13.7581 13.6465 13.507 13.5628L13.5075 13.5633C13.8423 13.8981 14.2327 14.2886 14.5674 14.6791L15.8512 16.0186C16.108 16.3488 16.3889 16.6548 16.6622 16.9526C16.8047 17.1079 16.9452 17.2609 17.0791 17.414L16.7442 17.7488C16.414 17.492 16.1079 17.2111 15.8101 16.9378C15.6549 16.7953 15.5018 16.6548 15.3488 16.5209L14.0093 15.2372C13.6186 14.9023 13.2837 14.5674 12.893 14.1767C12.9767 14.4279 13.0744 14.6652 13.1721 14.9024C13.2698 15.1396 13.3674 15.3768 13.4512 15.6279L14.0093 17.4698C14.2326 18.0279 14.4558 18.5861 14.6233 19.2L14.1767 19.3674C14.0372 19.0884 13.9116 18.8093 13.7861 18.5302C13.6605 18.2512 13.5349 17.9721 13.3953 17.693L12.614 16.0186C12.5023 15.7674 12.4047 15.5302 12.307 15.293C12.2093 15.0558 12.1116 14.8186 12 14.5674C11.9442 15.0698 11.9442 15.6279 11.9442 16.1302L11.8884 17.9721C11.8605 18.279 11.8465 18.586 11.8326 18.8929C11.8186 19.1999 11.8047 19.5069 11.7767 19.814H11.3302C11.3023 19.507 11.2884 19.2001 11.2744 18.8932C11.2605 18.5861 11.2465 18.2791 11.2186 17.9721L11.1628 16.1302C11.107 15.0698 11.107 13.9535 11.107 12.893C10.0465 12.893 8.98605 12.893 7.86977 12.8372L6.0279 12.7814C5.7209 12.7535 5.41389 12.7395 5.10689 12.7256C4.79995 12.7116 4.493 12.6977 4.18605 12.6698V12.1674C4.493 12.1395 4.79995 12.1256 5.10689 12.1116C5.41389 12.0977 5.7209 12.0837 6.0279 12.0558L7.86977 12H9.37674C9.15347 11.8884 8.91623 11.7907 8.679 11.693C8.44181 11.5953 8.20462 11.4977 7.98139 11.386L6.30697 10.6047C6.0279 10.4651 5.74883 10.3395 5.46976 10.2139C5.19069 10.0884 4.91162 9.96279 4.63255 9.82325L4.85582 9.32093C5.41396 9.48837 6.0279 9.71163 6.58604 9.93488L8.31628 10.6047C8.63083 10.7095 8.94539 10.8362 9.24623 10.9574C9.42583 11.0298 9.60054 11.1002 9.76744 11.1628C9.59999 10.9674 9.41859 10.786 9.23719 10.6046C9.0558 10.4232 8.87442 10.2419 8.70698 10.0465L7.42325 8.70697C7.16648 8.37683 6.88558 8.0708 6.61227 7.77302C6.46974 7.61772 6.32927 7.46467 6.19535 7.31162L6.58604 6.92093C6.91624 7.17773 7.22231 7.45866 7.52012 7.732C7.67537 7.87451 7.82838 8.01494 7.98139 8.14883L9.32094 9.43256C9.51626 9.59998 9.69762 9.78136 9.87901 9.96274C10.0604 10.1441 10.2418 10.3256 10.4372 10.493C10.3535 10.2419 10.2558 10.0047 10.1582 9.76752C10.0605 9.53028 9.96281 9.29305 9.87908 9.04186L9.2093 7.31162C9.07483 6.97543 8.96059 6.63924 8.84222 6.29085C8.76408 6.06085 8.68412 5.82553 8.59535 5.5814L9.04187 5.41395C9.1814 5.69302 9.30699 5.97209 9.43257 6.25116C9.55814 6.53023 9.68372 6.8093 9.82326 7.08837L10.6047 8.76279C10.7163 8.98605 10.814 9.22325 10.9116 9.46046C11.0093 9.69767 11.107 9.93488 11.2186 10.1581V8.65116L11.2744 6.8093C11.3023 6.50237 11.3163 6.19544 11.3302 5.8885C11.3442 5.58148 11.3581 5.27446 11.386 4.96744H11.8884C11.9163 5.27442 11.9302 5.5814 11.9442 5.88837C11.9581 6.19534 11.9721 6.50232 12 6.8093L12.0558 8.65116C12.1116 9.71163 12.1116 10.8279 12.1116 11.8884C13.1721 11.8884 14.2884 11.8884 15.3488 11.9442L17.1907 12C17.4976 12.0279 17.8046 12.0419 18.1116 12.0558C18.4186 12.0698 18.7256 12.0837 19.0326 12.1116V12.5581C18.7256 12.586 18.4187 12.6 18.1117 12.6139Z" fill="#173361"/>
<path fill-rule="evenodd" clip-rule="evenodd" d="M0 12C0 18.6419 5.35814 24 12 24C18.6419 24 24 18.6419 24 12C24 5.35814 18.6419 0 12 0C5.35814 0 0 5.35814 0 12ZM1.11628 12C1.11628 6.02791 6.0279 1.11628 12 1.11628C17.9721 1.11628 22.8837 6.02791 22.8837 12C22.8837 17.9721 17.9721 22.8837 12 22.8837C6.0279 22.8837 1.11628 17.9721 1.11628 12Z" fill="#173361"/>
</svg>
