<svg width="24" height="24" viewBox="0 0 24 24" fill="none" xmlns="http://www.w3.org/2000/svg">
<path d="M8.35854 1.7124H14.8496L8.11151 21.6772C8.04225 21.8824 7.91036 22.0607 7.73442 22.187C7.55849 22.3133 7.34737 22.3813 7.13079 22.3813H2.07926C1.91518 22.3813 1.75346 22.3422 1.60747 22.2673C1.46148 22.1924 1.33542 22.0839 1.23973 21.9506C1.14404 21.8173 1.08145 21.6631 1.05716 21.5009C1.03287 21.3386 1.04757 21.1729 1.10004 21.0174L7.37782 2.41646C7.44707 2.21125 7.57895 2.03294 7.75489 1.90663C7.93083 1.78032 8.14196 1.71239 8.35854 1.7124V1.7124Z" fill="url(#paint0_linear_409_3)"/>
<path d="M17.7909 15.1035H7.49773C7.40207 15.1035 7.30861 15.1323 7.22952 15.1861C7.15043 15.2399 7.08938 15.3163 7.0543 15.4053C7.01923 15.4943 7.01175 15.5918 7.03285 15.6851C7.05395 15.7785 7.10265 15.8633 7.17261 15.9285L13.7869 22.1017C13.9794 22.2814 14.2329 22.3813 14.4963 22.3813H20.3244L17.7909 15.1035Z" fill="#0078D4"/>
<path d="M8.3586 1.71241C8.13968 1.71159 7.92623 1.78078 7.74943 1.90988C7.57262 2.03897 7.44171 2.2212 7.37582 2.42997L1.10788 21.0005C1.0519 21.1566 1.03432 21.3238 1.05664 21.4881C1.07895 21.6523 1.1405 21.8088 1.23608 21.9442C1.33165 22.0797 1.45845 22.1901 1.60573 22.2662C1.75301 22.3423 1.91645 22.3817 2.08222 22.3813H7.26416C7.45721 22.3468 7.63765 22.2617 7.78703 22.1346C7.93641 22.0076 8.04937 21.8431 8.11438 21.6581L9.36407 17.9747L13.8289 22.1388C14.016 22.2936 14.2507 22.3793 14.4935 22.3813H20.3001L17.7533 15.1035L10.3292 15.1052L14.8733 1.71241H8.3586Z" fill="url(#paint1_linear_409_3)"/>
<path d="M16.6493 2.41534C16.5801 2.21047 16.4485 2.03244 16.2728 1.90634C16.0972 1.78024 15.8864 1.71241 15.6702 1.7124H8.43604C8.65228 1.7124 8.86307 1.78023 9.03874 1.90633C9.2144 2.03243 9.34609 2.21046 9.41525 2.41534L15.6934 21.0173C15.7459 21.1728 15.7606 21.3385 15.7363 21.5008C15.712 21.6631 15.6494 21.8172 15.5537 21.9505C15.458 22.0838 15.332 22.1924 15.186 22.2673C15.04 22.3422 14.8783 22.3813 14.7142 22.3813H21.9483C22.1124 22.3813 22.2741 22.3422 22.4201 22.2673C22.5661 22.1923 22.6921 22.0838 22.7878 21.9505C22.8835 21.8172 22.946 21.663 22.9703 21.5008C22.9946 21.3385 22.9799 21.1728 22.9274 21.0173L16.6493 2.41534Z" fill="url(#paint2_linear_409_3)"/>
<defs>
<linearGradient id="paint0_linear_409_3" x1="10.7244" y1="3.244" x2="3.98332" y2="23.1588" gradientUnits="userSpaceOnUse">
<stop stop-color="#114A8B"/>
<stop offset="1" stop-color="#0669BC"/>
</linearGradient>
<linearGradient id="paint1_linear_409_3" x1="12.8303" y1="12.5248" x2="11.2708" y2="13.052" gradientUnits="userSpaceOnUse">
<stop stop-opacity="0.3"/>
<stop offset="0.071" stop-opacity="0.2"/>
<stop offset="0.321" stop-opacity="0.1"/>
<stop offset="0.623" stop-opacity="0.05"/>
<stop offset="1" stop-opacity="0"/>
</linearGradient>
<linearGradient id="paint2_linear_409_3" x1="11.9727" y1="2.66303" x2="19.3723" y2="22.3773" gradientUnits="userSpaceOnUse">
<stop stop-color="#3CCBF4"/>
<stop offset="1" stop-color="#2892DF"/>
</linearGradient>
</defs>
</svg>
