<svg width="24" height="24" viewBox="0 0 24 24" fill="none" xmlns="http://www.w3.org/2000/svg">
<path d="M9.89168 2.67497C10.9104 1.47987 11.7876 0.266096 11.9668 0.014005C11.9857 -0.00466834 12.014 -0.00466834 12.0328 0.014005C12.2121 0.266096 13.0893 1.47987 14.108 2.67497C22.8518 13.7016 12.7308 21.143 12.7308 21.143L12.6459 21.199C12.5705 22.3474 12.3818 24 12.3818 24H12.0045H11.6272C11.6272 24 11.4386 22.3567 11.3631 21.199L11.2783 21.1337C11.2688 21.1337 1.14786 13.7016 9.89168 2.67497ZM12.0045 20.9749C12.0045 20.9749 12.4573 20.5921 12.5799 20.396V20.3774L12.0328 8.37035C12.0328 8.333 11.9762 8.333 11.9762 8.37035L11.4292 20.3774V20.396C11.5518 20.5921 12.0045 20.9749 12.0045 20.9749Z" fill="#116149"/>
</svg>
