<svg width="24" height="24" viewBox="0 0 24 24" fill="none" xmlns="http://www.w3.org/2000/svg">
<g clip-path="url(#clip0_915_144)">
<path d="M16.2077 7.7923C15.6401 3.54756 14.2087 0 12 0C9.79744 0 8.35991 3.54756 7.79227 7.7923C3.54755 8.35993 0 9.79128 0 12C0 14.2026 3.54755 15.6401 7.79227 16.2077C8.35991 20.4525 9.79124 24 12 24C14.2026 24 15.6401 20.4525 16.2077 16.2077C20.4524 15.6401 24 14.2087 24 12C24 9.79128 20.4524 8.35373 16.2077 7.7923ZM7.65656 14.9614C3.59074 14.3753 1.21542 13.0303 1.21542 11.9938C1.21542 10.9573 3.58457 9.61234 7.65656 9.02623C7.56401 10.0072 7.5208 11.0067 7.5208 11.9938C7.5208 12.981 7.56401 13.9866 7.65656 14.9614ZM12 1.20925C13.0365 1.20925 14.3815 3.57841 14.9676 7.65036C13.9866 7.55782 12.9871 7.51468 12 7.51468C11.0129 7.51468 10.0134 7.56402 9.0324 7.65036C9.61848 3.58458 10.9635 1.20925 12 1.20925ZM16.3434 14.9614C16.146 14.9923 15.3193 15.0848 15.1157 15.1095C15.0972 15.3193 14.9985 16.1398 14.9676 16.3373C14.3815 20.4031 13.0365 22.7784 12 22.7784C10.9635 22.7784 9.61848 20.4093 9.0324 16.3373C9.00154 16.1398 8.90899 15.3131 8.88428 15.1095C8.79178 14.1471 8.73008 13.1105 8.73008 11.9938C8.73008 10.8771 8.78558 9.84681 8.88428 8.87816C9.8468 8.78562 10.8833 8.72389 12 8.72389C13.1167 8.72389 14.1471 8.77942 15.1157 8.87816C15.3254 8.89663 16.146 8.99537 16.3434 9.02623C20.4092 9.61234 22.7846 10.9573 22.7846 11.9938C22.7846 13.0303 20.4092 14.3753 16.3434 14.9614Z" fill="black"/>
</g>
<defs>
<clipPath id="clip0_915_144">
<rect width="24" height="24" fill="white"/>
</clipPath>
</defs>
</svg>
