<svg width="24" height="24" viewBox="0 0 24 24" fill="none" xmlns="http://www.w3.org/2000/svg">
<rect width="24" height="24" fill="#151515"/>
<path d="M6.62684 5.34009H5.74634C5.58818 5.34009 5.45996 5.46961 5.45996 5.62939V18.4308C5.45996 18.5906 5.58818 18.7201 5.74634 18.7201H6.62684C6.785 18.7201 6.91322 18.5906 6.91322 18.4308V5.62939C6.91322 5.46961 6.785 5.34009 6.62684 5.34009Z" fill="#FCFF74"/>
<path d="M9.53355 5.34009H8.65306C8.49489 5.34009 8.36668 5.46961 8.36668 5.62939V18.4308C8.36668 18.5906 8.49489 18.7201 8.65306 18.7201H9.53355C9.69172 18.7201 9.81993 18.5906 9.81993 18.4308V5.62939C9.81993 5.46961 9.69172 5.34009 9.53355 5.34009Z" fill="#FCFF74"/>
<path d="M12.4402 5.34009H11.5597C11.4015 5.34009 11.2733 5.46961 11.2733 5.62939V18.4308C11.2733 18.5906 11.4015 18.7201 11.5597 18.7201H12.4402C12.5983 18.7201 12.7266 18.5906 12.7266 18.4308V5.62939C12.7266 5.46961 12.5983 5.34009 12.4402 5.34009Z" fill="#FCFF74"/>
<path d="M15.3462 5.34009H14.4657C14.3075 5.34009 14.1793 5.46961 14.1793 5.62939V18.4308C14.1793 18.5906 14.3075 18.7201 14.4657 18.7201H15.3462C15.5044 18.7201 15.6326 18.5906 15.6326 18.4308V5.62939C15.6326 5.46961 15.5044 5.34009 15.3462 5.34009Z" fill="#FCFF74"/>
<path d="M18.2536 10.5437H17.3731C17.2149 10.5437 17.0867 10.6732 17.0867 10.833V13.2277C17.0867 13.3875 17.2149 13.517 17.3731 13.517H18.2536C18.4117 13.517 18.54 13.3875 18.54 13.2277V10.833C18.54 10.6732 18.4117 10.5437 18.2536 10.5437Z" fill="#FCFF74"/>
</svg>
