<svg width="24" height="24" viewBox="0 0 24 24" fill="none" xmlns="http://www.w3.org/2000/svg">
<path d="M7.15872 10.8149L6.25872 4.62142L2.52747 2.30542L3.73647 8.15542L7.15796 10.8224L7.15872 10.8149ZM8.19372 17.8972L7.55472 13.5299L4.28772 10.8074L5.16522 15.0434L8.19372 17.8964V17.8972ZM5.65647 17.4172L6.30297 20.5409L8.99996 23.4037L8.53946 20.2499L5.65797 17.4149L5.65647 17.4172ZM14.3895 16.0627L13.0117 15.0112L13.0222 15.2587C13.0233 15.2831 13.018 15.3074 13.007 15.3292C12.996 15.351 12.9795 15.3696 12.9592 15.3832L11.9197 16.0837L13.05 17.0062C13.065 17.0212 13.0725 17.0264 13.0762 17.0332L13.0927 17.0647C13.0987 17.0849 13.1002 17.0924 13.1002 17.1007L13.1482 18.1882L14.4232 19.2554L14.3962 16.0604L14.3895 16.0627ZM19.1145 12.6824L18.8445 15.7972L17.9445 15.1762L18.042 13.5877C18.042 13.5697 18.0405 13.5629 18.0397 13.5577C18.0352 13.5337 18.0307 13.5232 18.0247 13.5127C18.0187 13.5022 18.0097 13.4917 18.0007 13.4827C17.9934 13.4749 17.9853 13.4679 17.9767 13.4617L16.0567 12.1942L16.0845 10.8022L19.107 12.6847" fill="#123D10"/>
<path d="M12.4425 8.33703L12.1912 2.45703L6.5437 4.62753L7.4662 10.9275L12.4425 8.33703ZM12.7425 15.1883L12.558 10.8533L7.85545 13.5308L8.51545 18.0383L12.744 15.1898L12.7425 15.1883ZM12.8377 17.3858L8.83795 20.2478L9.32395 23.5643L12.978 20.6543L12.8385 17.3865L12.8377 17.3858ZM14.6865 16.0643L14.7135 19.2705L17.5634 16.9965L17.7532 13.869L14.6782 16.0635L14.6865 16.0643ZM21.7964 10.9778L21.3959 13.944L19.1475 15.744L19.4114 12.693L21.7964 10.986" fill="#33B652"/>
<path d="M13.104 17.1089L13.098 17.0774C13.0946 17.0659 13.0898 17.0548 13.0838 17.0444C13.0725 17.0264 13.0665 17.0204 13.0613 17.0144L11.9213 16.0844L12.9608 15.3839C12.9811 15.3703 12.9975 15.3517 13.0086 15.3299C13.0196 15.3081 13.0248 15.2838 13.0238 15.2594L13.0133 15.0119L14.391 16.0634L14.418 19.2584L13.143 18.1912L13.0965 17.1112L13.104 17.1089ZM7.55553 13.5299L8.19453 17.8972L5.16603 15.0442L4.28853 10.8082L7.55553 13.5299ZM12.7335 15.1889L8.50503 18.0374L7.84503 13.5299L12.5475 10.8524L12.732 15.1874L12.7335 15.1889ZM12.1898 2.45765L12.441 8.33765L7.46478 10.9274L6.54228 4.6274L12.1898 2.45765ZM6.25128 4.6199L7.15128 10.8134L3.72978 8.1464L2.52078 2.2964L6.25128 4.6199ZM6.30378 20.5387L5.65728 17.4149L8.53953 20.2499L9.00078 23.4022L6.30378 20.5387ZM12.9675 20.6527L9.31353 23.5627L8.82753 20.2462L12.8273 17.3842L12.9668 20.6519L12.9675 20.6527ZM17.5545 16.9957L14.7045 19.2697L14.6775 16.0634L17.7525 13.8689L17.5628 16.9964L17.5545 16.9957ZM17.952 15.1747L18.0495 13.5862C18.0495 13.5682 18.048 13.5614 18.0473 13.5562C18.0428 13.5322 18.0383 13.5217 18.0323 13.5112C18.0263 13.5007 18.0173 13.4902 18.0083 13.4812C18.0009 13.4734 17.9929 13.4664 17.9843 13.4602L16.0643 12.1927L16.092 10.8007L19.1145 12.6832L18.8445 15.7979L17.9445 15.1769L17.952 15.1747ZM19.137 15.7349L19.401 12.6839L21.786 10.9769L21.3855 13.9432L19.137 15.7432V15.7349ZM22.1145 10.6574L22.11 10.6349C22.1085 10.6274 22.1055 10.6199 22.1025 10.6124C22.0971 10.6004 22.0903 10.5891 22.0823 10.5787C22.0673 10.5614 22.0598 10.5562 22.0523 10.5502L18.7763 8.73515C18.7313 8.7104 18.6765 8.71115 18.6323 8.74115L15.8768 10.4257C15.8723 10.4257 15.8693 10.4332 15.8648 10.4354C15.8603 10.4377 15.855 10.4429 15.8498 10.4467L15.8378 10.4617C15.834 10.4677 15.8303 10.4692 15.8273 10.4752C15.8243 10.4812 15.8213 10.4879 15.8198 10.4947C15.8183 10.5014 15.8153 10.5044 15.8138 10.5097C15.8123 10.5149 15.8115 10.5247 15.8108 10.5322L15.7793 12.0097L14.6588 11.2694C14.6123 11.2394 14.5523 11.2379 14.505 11.2694L12.8925 12.2549L12.8228 10.6154L12.8175 10.5839C12.816 10.5779 12.8145 10.5742 12.8123 10.5689C12.8099 10.5627 12.8072 10.5567 12.804 10.5509C12.801 10.5449 12.798 10.5412 12.7943 10.5359C12.7905 10.5307 12.7868 10.5262 12.783 10.5209C12.7793 10.5157 12.774 10.5134 12.768 10.5089L11.0805 9.3734L12.651 8.5484C12.7005 8.5229 12.7305 8.4704 12.7283 8.4149L12.4643 2.2439C12.4635 2.2364 12.462 2.2289 12.4605 2.2214C12.456 2.1989 12.4508 2.18765 12.444 2.1764C12.4373 2.16515 12.4275 2.1539 12.42 2.1464C12.4073 2.13365 12.4035 2.1314 12.399 2.1284C12.3863 2.1224 12.384 2.1224 12.3825 2.11715L8.15478 0.086153C8.12212 0.0700948 8.08455 0.067143 8.04978 0.077903L2.27703 1.8764L2.23953 1.8974L2.20953 1.92515C2.20503 1.93115 2.20203 1.9364 2.19903 1.9424C2.19603 1.9484 2.19153 1.95365 2.18928 1.9604C2.18703 1.96715 2.18478 1.9754 2.18178 1.9829C2.17728 2.0054 2.17803 2.0129 2.17803 2.0204C2.17803 2.0279 2.17803 2.0339 2.17878 2.04065L3.46728 8.26715C3.47478 8.30015 3.49278 8.33015 3.51978 8.35115L5.26728 9.7139L4.00353 10.3154C3.98853 10.3214 3.98703 10.3267 3.98403 10.3274L3.96378 10.3447C3.94728 10.3627 3.94278 10.3717 3.93828 10.3799C3.92778 10.4009 3.92328 10.4137 3.92328 10.4264C3.92219 10.4402 3.9227 10.454 3.92478 10.4677L4.89378 15.1552C4.89972 15.1839 4.91439 15.2101 4.93578 15.2302L6.15228 16.3762L5.34603 16.8697C5.33553 16.8757 5.32653 16.8847 5.31753 16.8922C5.30478 16.9072 5.29878 16.9169 5.29353 16.9259C5.28577 16.9412 5.28046 16.9577 5.27778 16.9747C5.27628 16.9882 5.27703 17.0017 5.28003 17.0159L6.03003 20.6474C6.03528 20.6729 6.04803 20.6969 6.06603 20.7164L9.10203 23.9399C9.10653 23.9459 9.11178 23.9474 9.11703 23.9527C9.13203 23.9654 9.14178 23.9706 9.15228 23.9752C9.17253 23.9811 9.18978 23.9849 9.20628 23.9849C9.22278 23.9849 9.23478 23.9849 9.24828 23.9774C9.26178 23.9699 9.26478 23.9714 9.26853 23.9662C9.27453 23.9662 9.27903 23.9587 9.28353 23.9557L13.2008 20.8379C13.2368 20.8079 13.2563 20.7652 13.2548 20.7202L13.1633 18.5827L14.4683 19.6807C14.4833 19.6919 14.4908 19.6979 14.4983 19.7017C14.5058 19.7054 14.5133 19.7077 14.517 19.7129C14.532 19.7189 14.5455 19.7204 14.5598 19.7204C14.574 19.7204 14.5875 19.7144 14.6018 19.7129C14.6145 19.7069 14.6183 19.7069 14.6213 19.7017C14.6288 19.6957 14.634 19.6942 14.6408 19.6889L17.7803 17.1862C17.8125 17.1607 17.8313 17.1232 17.8343 17.0827L17.9295 15.5152L18.882 16.1782C18.891 16.1842 18.8933 16.1894 18.897 16.1894C18.9023 16.1954 18.9083 16.1954 18.9143 16.1969C18.939 16.2082 18.9518 16.2082 18.9645 16.2082C18.9773 16.2082 18.993 16.2082 19.0065 16.2007C19.02 16.1932 19.0215 16.1947 19.026 16.1894C19.0335 16.1834 19.041 16.1804 19.0485 16.1759L21.6098 14.1344C21.6398 14.1119 21.6578 14.0774 21.6623 14.0414L22.1153 10.6889L22.116 10.6612" fill="#231F20"/>
</svg>
