<svg width="24" height="24" viewBox="0 0 24 24" fill="none" xmlns="http://www.w3.org/2000/svg">
<g clip-path="url(#clip0_912_29)">
<path fill-rule="evenodd" clip-rule="evenodd" d="M12 0C5.37 0 0 5.43036 0 12.1349C0 17.5046 3.435 22.04 8.205 23.6479C8.805 23.754 9.03 23.39 9.03 23.0715C9.03 22.7833 9.015 21.8276 9.015 20.8113C6 21.3726 5.22 20.0681 4.98 19.3855C4.845 19.0366 4.26 17.9596 3.75 17.6714C3.33 17.4439 2.73 16.8827 3.735 16.8675C4.68 16.8523 5.355 17.7473 5.58 18.1113C6.66 19.9467 8.385 19.431 9.075 19.1125C9.18 18.3237 9.495 17.7928 9.84 17.4894C7.17 17.186 4.38 16.1394 4.38 11.4978C4.38 10.1781 4.845 9.086 5.61 8.23656C5.49 7.93318 5.07 6.68936 5.73 5.02081C5.73 5.02081 6.735 4.70227 9.03 6.26464C9.99 5.9916 11.01 5.85508 12.03 5.85508C13.05 5.85508 14.07 5.9916 15.03 6.26464C17.325 4.6871 18.33 5.02081 18.33 5.02081C18.99 6.68936 18.57 7.93318 18.45 8.23656C19.215 9.086 19.68 10.163 19.68 11.4978C19.68 16.1546 16.875 17.186 14.205 17.4894C14.64 17.8686 15.015 18.5967 15.015 19.7344C15.015 21.3574 15 22.6619 15 23.0563C15 23.3748 15.225 23.754 15.825 23.6327C18.2048 22.8203 20.2731 21.2743 21.7394 19.2121C23.2057 17.1498 23.9962 14.6749 24 12.1349C24 5.43036 18.63 0 12 0Z" fill="black"/>
</g>
<defs>
<clipPath id="clip0_912_29">
<rect width="24" height="24" fill="white"/>
</clipPath>
</defs>
</svg>
