<svg width="24" height="24" viewBox="0 0 24 24" fill="none" xmlns="http://www.w3.org/2000/svg">
<path d="M21.9114 9.88043L12.02 15.4882L1.49789 9.51325L1 9.78025V14.1196L12.02 20.395L21.9114 14.7872V17.0904L12.02 22.6982L1.49789 16.7232L1 16.9903V17.7247L12.02 24L23.0732 17.7247V13.3853L22.5754 13.1182L12.02 19.0932L2.16172 13.4854V11.2156L12.02 16.79L23.0732 10.5146V6.24201L22.5089 5.9416L12.02 11.8832L2.69278 6.57581L12.02 1.30181L19.7207 5.64118L20.4178 5.274V4.73992L12.02 0L1 6.24201V6.90961L12.02 13.185L21.9114 7.5772V9.88043Z" fill="#FF3621"/>
</svg>
