<svg width="24" height="24" viewBox="0 0 24 24" fill="none" xmlns="http://www.w3.org/2000/svg">
<g clip-path="url(#clip0_409_3)">
<path d="M13.9297 3.036V1.3H14.5538V0H9.44458V1.3H10.0677V3.049C7.68438 3.51326 5.53527 4.8039 3.9899 6.699C2.44452 8.59411 1.59944 10.9753 1.59998 13.433C1.59998 19.275 6.27771 24 12.0348 24C17.8037 24 22.4695 19.263 22.4695 13.433C22.4695 8.247 18.7872 3.947 13.9297 3.036ZM12.3221 18.862V18.255H11.7109V18.862C8.98836 18.704 6.81786 16.482 6.67369 13.725H7.27309V13.105H6.67369C6.75502 11.7802 7.31216 10.5314 8.24006 9.59395C9.16796 8.6565 10.4025 8.09524 11.7109 8.016V8.623H12.3231V8.016C13.6418 8.0871 14.8884 8.64807 15.8243 9.59157C16.7602 10.5351 17.3197 11.7949 17.3958 13.13H16.7964V13.749H17.3958C17.3175 15.0834 16.7571 16.342 15.8215 17.2849C14.8858 18.2279 13.6402 18.7892 12.3221 18.862ZM14.5538 11.15L14.1687 10.761L12.2145 12.486C12.1148 12.4474 12.0091 12.4271 11.9024 12.426C11.3751 12.426 10.9436 12.874 10.9436 13.421C10.9436 13.968 11.3751 14.417 11.9024 14.417C12.4307 14.417 12.8623 13.967 12.8623 13.421C12.8648 13.3175 12.8484 13.2144 12.8139 13.117L14.5538 11.15Z" fill="#FF282D"/>
</g>
<defs>
<clipPath id="clip0_409_3">
<rect width="24" height="24" fill="white"/>
</clipPath>
</defs>
</svg>
