<svg width="24" height="24" viewBox="0 0 24 24" fill="none" xmlns="http://www.w3.org/2000/svg">
<g clip-path="url(#clip0_409_3)">
<rect width="24" height="24" fill="white"/>
<path fill-rule="evenodd" clip-rule="evenodd" d="M19.7304 17.0408L17.7179 15.7238L16.039 18.5061L14.0864 17.9397L12.3672 20.5431L12.4553 21.3626L21.8031 19.6538L21.2601 13.8591L19.7304 17.0408ZM11.0128 14.5425L12.5126 14.3378C12.7553 14.446 12.9242 14.4872 13.2152 14.5607C13.6683 14.6778 14.193 14.7902 14.9698 14.4017C15.1506 14.3129 15.5272 13.9713 15.6794 13.7765L21.8243 12.6704L22.4512 20.1976L11.9239 22.0799L11.0128 14.5425ZM22.4274 11.8302L21.8209 11.9448L20.6556 0L0.800049 2.28426L3.24618 21.9787L5.57029 21.644C5.38468 21.3812 5.09569 21.063 4.60217 20.6558C3.91768 20.0916 4.15978 19.1333 4.56347 18.5282C5.09766 17.5058 7.85004 16.2064 7.6941 14.5722C7.63816 13.9779 7.54293 13.2044 6.98702 12.6744C6.96608 12.8944 7.0037 13.1063 7.0037 13.1063C7.0037 13.1063 6.77539 12.8173 6.66158 12.4233C6.54858 12.2722 6.45984 12.224 6.33981 12.0222C6.25418 12.2556 6.26548 12.5264 6.26548 12.5264C6.26548 12.5264 6.07876 12.0886 6.04857 11.7192C5.93783 11.8846 5.90986 12.1988 5.90986 12.1988C5.90986 12.1988 5.66717 11.5087 5.72254 11.1371C5.61181 10.8137 5.28355 10.1718 5.37649 8.71301C5.98243 9.13421 7.31638 9.03411 7.83618 8.27401C8.0088 8.02236 8.12687 7.33511 7.75 5.98111C7.50793 5.11281 6.90848 3.81989 6.67484 3.3294L6.64687 3.3493C6.77007 3.74449 7.02399 4.57299 7.12147 4.97463C7.41642 6.19301 7.49547 6.61706 7.35706 7.17871C7.23929 7.66696 6.95679 7.98646 6.24062 8.34351C5.52452 8.70171 4.5742 7.83011 4.51403 7.78186C3.81824 7.23196 3.28008 6.33481 3.21991 5.89901C3.15748 5.42196 3.49704 5.13551 3.66823 4.74536C3.42331 4.81487 3.15014 4.93819 3.15014 4.93819C3.15014 4.93819 3.47614 4.60354 3.87813 4.31401C4.04452 4.2047 4.14226 4.13519 4.31769 3.99057C4.06373 3.98637 3.8575 3.99366 3.8575 3.99366C3.8575 3.99366 4.28097 3.76663 4.71997 3.60127C4.39878 3.58726 4.09142 3.59903 4.09142 3.59903C4.09142 3.59903 5.03637 3.17973 5.78273 2.87199C6.29602 2.66318 6.79744 2.72485 7.07908 3.129C7.44887 3.65845 7.83734 3.94601 8.66048 4.12427C9.16592 3.90201 9.31955 3.78765 9.95461 3.61613C10.5137 3.00624 10.9527 2.92721 10.9527 2.92721C10.9527 2.92721 10.7349 3.12537 10.6767 3.43675C10.9937 3.18899 11.3411 2.98214 11.3411 2.98214C11.3411 2.98214 11.2067 3.14694 11.0812 3.40872L11.1103 3.4516C11.4802 3.23159 11.9149 3.0581 11.9149 3.0581C11.9149 3.0581 11.7906 3.21393 11.6448 3.41573C11.9236 3.41348 12.4892 3.4275 12.7087 3.45216C14.0045 3.48047 14.2734 2.07909 14.7706 1.90336C15.3933 1.68278 15.6716 1.54937 16.7326 2.58331C17.6431 3.47094 18.3544 5.05981 18.0013 5.41581C17.7052 5.71121 17.121 5.30061 16.4736 4.49984C16.1314 4.07578 15.8727 3.57464 15.7515 2.93758C15.6493 2.40001 15.2511 2.08806 15.2511 2.08806C15.2511 2.08806 15.4822 2.59761 15.4822 3.04773C15.4822 3.29353 15.5133 4.21255 15.9105 4.72827C15.8712 4.80366 15.8529 5.10131 15.8094 5.15821C15.3472 4.6041 14.3548 4.20751 14.193 4.09063C14.7407 4.536 15.9998 5.55901 16.4834 6.53941C16.9407 7.46656 16.6713 8.31636 16.9026 8.53636C16.9684 8.59941 17.8863 9.73406 18.0628 10.3041C18.3708 11.2977 18.0812 12.3417 17.6781 12.9894L16.5523 13.1635C16.3877 13.1181 16.2766 13.0954 16.1289 13.0104C16.2102 12.8675 16.3721 12.511 16.3738 12.4376L16.3102 12.3269C15.9599 12.8193 15.3729 13.2974 14.8853 13.5721C14.2472 13.9309 13.5116 13.8756 13.0327 13.7286C11.6736 13.3126 10.3885 12.4014 10.0786 12.162C10.0786 12.162 10.0691 12.3532 10.1275 12.3961C10.4702 12.7795 11.2553 13.4732 12.014 13.9566L10.3965 14.1332L11.1612 20.0409C10.8222 20.0891 10.7694 20.1126 10.3981 20.165C10.071 19.0184 9.4453 18.2698 8.76133 17.8337C8.15821 17.4491 7.32628 17.3626 6.5299 17.519L6.47878 17.5778C7.03248 17.5206 7.68617 17.6003 8.35764 18.0221C9.01671 18.4355 9.54786 19.5033 9.74332 20.1463C9.99358 20.9681 10.1668 21.847 9.49306 22.7787C9.01364 23.4409 7.61415 23.807 6.4836 23.0152C6.78558 23.497 7.19379 23.891 7.74322 23.9653C8.55908 24.0752 9.33341 23.9348 9.86647 23.3919C10.3216 22.9278 10.5629 21.9572 10.4993 20.935L11.2194 20.8313L11.4793 22.6659L23.4 21.2419L22.4274 11.8302ZM15.1749 6.84771C15.1416 6.92311 15.0893 6.97246 15.1678 7.21766L15.1726 7.23171L15.185 7.26336L15.2178 7.33681C15.3593 7.62381 15.5148 7.89461 15.7744 8.03276C15.8416 8.02151 15.9111 8.01391 15.9831 8.01031C16.2269 7.99966 16.3809 8.03806 16.4786 8.09016C16.4874 8.04196 16.4894 7.97131 16.484 7.86736C16.465 7.50386 16.5565 6.88556 15.8523 6.56016C15.5865 6.43766 15.2136 6.47551 15.0893 6.62826C15.1119 6.63106 15.1322 6.63581 15.148 6.64116C15.3359 6.70646 15.2086 6.77066 15.1749 6.84771ZM17.1487 10.2396C17.0563 10.1891 16.6246 10.2091 16.3213 10.2449C15.7432 10.3125 15.1193 10.5115 14.9825 10.6175C14.7339 10.808 14.8469 11.1405 15.0305 11.277C15.5455 11.6587 15.997 11.9146 16.4736 11.8523C16.7662 11.8142 17.0241 11.3546 17.2069 10.9375C17.332 10.6502 17.3321 10.3403 17.1487 10.2396ZM12.0315 7.29786C12.1945 7.14426 11.2196 6.94246 10.4631 7.45426C9.90519 7.83171 9.88736 8.64121 10.4216 9.09996C10.475 9.14541 10.5191 9.17771 10.5603 9.20401C10.7163 9.13111 10.894 9.05736 11.0985 8.99151C11.4439 8.88031 11.7312 8.82286 11.9674 8.79226C12.0804 8.66701 12.2118 8.44641 12.179 8.04696C12.1344 7.50526 11.7205 7.59131 12.0315 7.29786Z" fill="#632CA6"/>
</g>
<defs>
<clipPath id="clip0_409_3">
<rect width="24" height="24" fill="white"/>
</clipPath>
</defs>
</svg>
