<svg width="72" height="72" viewBox="0 0 72 72" fill="none" xmlns="http://www.w3.org/2000/svg">
<g clip-path="url(#clip0_879_183)">
<path d="M36.0259 68.4285C53.9213 68.4285 68.4285 53.9213 68.4285 36.0259C68.4285 18.1304 53.9213 3.62329 36.0259 3.62329C18.1304 3.62329 3.62329 18.1304 3.62329 36.0259C3.62329 53.9213 18.1304 68.4285 36.0259 68.4285Z" fill="#3CC48F"/>
<path d="M36.0259 72C16.1495 72 0 55.8505 0 36.0259C0 16.1495 16.1495 0 36.0259 0C55.9022 0 72.0518 16.1495 72.0518 36.0259C72 55.8505 55.8505 72 36.0259 72ZM36.0259 7.14306C20.1352 7.14306 7.19482 20.0834 7.19482 35.9741C7.19482 51.8648 20.1352 64.8052 36.0259 64.8052C51.9166 64.8052 64.8569 51.8648 64.8569 35.9741C64.8569 20.0834 51.9166 7.14306 36.0259 7.14306Z" fill="#AEFFDC"/>
</g>
<defs>
<clipPath id="clip0_879_183">
<rect width="72" height="72" fill="white"/>
</clipPath>
</defs>
</svg>
